# xmcd CD database file
#
# Track frame offsets:
#	150
#	49752
#	95342
#	133505
#	217995
#	244677
#
# Disc length: 3529 seconds
#
# Revision: 0
# Processed by: cddbd v1.5.1PL0 Copyright (c) Steve Scherf et al.
# Submitted via: CDex 1.51
#
DISCID=4a0dc706
DTITLE=Miles Davis - Star People
DYEAR=1983
DGENRE=Jazz
TTITLE0=Come Get It
TTITLE1=It Gets Better
TTITLE2=Speak
TTITLE3=Star People
TTITLE4=U 'N' I
TTITLE5=Star On Cicely
EXTD=YEAR: 1983
EXTT0=
EXTT1=
EXTT2=
EXTT3=
EXTT4=
EXTT5=
PLAYORDER=
